<?xml version="1.0" standalone="no"?>
<!DOCTYPE svg PUBLIC "-//W3C//DTD SVG 20010904//EN"
 "http://www.w3.org/TR/2001/REC-SVG-20010904/DTD/svg10.dtd">
<svg version="1.0" xmlns="http://www.w3.org/2000/svg"
 width="70.000000pt" height="70.000000pt" viewBox="0 0 70.000000 70.000000"
 preserveAspectRatio="xMidYMid meet">
<metadata>
Created by potrace 1.11, written by Peter Selinger 2001-2013
</metadata>
<g transform="translate(0.000000,70.000000) scale(0.100000,-0.100000)"
fill="#000000" stroke="none">
<path d="M211 669 c-38 -17 -81 -47 -105 -73 -55 -59 -62 -69 -71 -97 -4 -13
-13 -30 -19 -38 -6 -8 -11 -53 -11 -105 0 -83 3 -98 33 -158 61 -124 167 -191
310 -195 51 -1 82 2 82 8 0 6 4 8 8 5 17 -10 116 46 156 89 46 48 86 117 89
153 1 12 4 22 7 22 4 0 6 33 5 73 -2 39 -3 72 -4 72 -2 0 -4 8 -6 18 -14 74
-101 179 -182 218 -62 30 -65 31 -153 35 -66 2 -83 -1 -139 -27z m42 -236 c11
-17 -3 -44 -22 -42 -27 2 -41 -1 -40 -8 1 -5 0 -10 -1 -13 -5 -13 -4 -76 1
-80 13 -9 -20 -43 -36 -37 -12 5 -15 24 -15 95 0 49 2 91 5 93 9 10 100 3 108
-8z m102 7 c7 11 55 9 55 -2 0 -11 38 -10 44 1 9 14 66 5 84 -13 12 -12 17
-36 17 -93 0 -71 -1 -76 -22 -79 -13 -2 -23 1 -24 9 0 6 -2 37 -3 67 -4 69 -2
65 -26 67 -28 2 -33 -11 -31 -78 1 -46 -3 -61 -15 -66 -25 -9 -38 13 -39 67
-3 77 -4 80 -24 80 -25 0 -35 -30 -33 -96 2 -49 1 -51 -25 -49 l-27 1 1 86 c1
101 5 111 38 98 15 -6 27 -6 30 0z"/>
</g>
</svg>
